<svg xmlns="http://www.w3.org/2000/svg" width="32" height="32" viewBox="0 0 32 32"><title>-github</title><path d="M10.784 17.376c-1.6 0-2.912 1.536-2.912 3.488s1.312 3.456 2.912 3.456 2.88-1.536 2.88-3.456-1.28-3.488-2.88-3.488zM10.784 23.168c-0.96 0-1.76-1.024-1.76-2.304s0.8-2.336 1.76-2.336 1.728 1.056 1.728 2.336-0.768 2.304-1.728 2.304zM21.792 17.376c-1.6 0-2.88 1.536-2.88 3.488s1.28 3.456 2.88 3.456 2.912-1.536 2.912-3.456-1.312-3.488-2.912-3.488zM21.792 23.168c-0.96 0-1.728-1.024-1.728-2.304s0.768-2.336 1.728-2.336 1.76 1.056 1.76 2.336-0.8 2.304-1.76 2.304zM22.688 14.464c-0.032 0-0.064 0-0.096 0-0.512 0-1.056 0.032-1.6 0.064-0.48 0-0.992 0.032-1.472 0.032l-0.864 0.032c-1.472 0.032-3.008 0.064-4.48 0.032-0.704 0-1.376 0-2.048-0.032-0.928-0.032-1.888-0.064-2.848-0.064-1.312 0.032-2.432 0.448-3.296 1.248v0c-1.44 1.344-2.048 3.104-1.824 5.408 0.32 3.328 1.664 5.024 4.64 5.888 2.528 0.704 5.024 0.768 7.168 0.736h0.704c0.224 0 0.48 0 0.704 0 0.288 0 0.608 0 0.896 0 2.080-0.064 3.904-0.384 5.6-0.96 1.824-0.64 3.040-1.824 3.616-3.584 0.448-1.344 0.576-2.592 0.416-3.872-0.288-2.048-2.080-4.928-5.216-4.928zM26.4 22.912c-0.48 1.408-1.408 2.336-2.912 2.848-1.568 0.544-3.296 0.832-5.248 0.896-0.544 0-1.056 0-1.568 0h-0.736c-2.016 0.032-4.448-0.032-6.816-0.704-2.496-0.704-3.552-2.048-3.808-4.896-0.192-1.888 0.288-3.328 1.472-4.416 0.64-0.608 1.504-0.928 2.528-0.928 0.928-0.032 1.856 0 2.752 0.032 0.704 0.032 1.408 0.064 2.112 0.064 1.504 0 3.040-0.032 4.512-0.064l0.864-0.032c0.48 0 0.992-0.032 1.472-0.032 0.544-0.032 1.056-0.032 1.6-0.064 0.032 0 0.032 0 0.064 0 2.4 0 3.84 2.336 4.064 3.936 0.128 1.088 0.032 2.176-0.352 3.36zM30.112 10.784c-0.352-0.48-0.512-0.768-0.448-1.28 0.096-1.056-0.032-2.144-0.192-3.168v-0.096c-0.192-1.376-0.544-2.72-1.088-3.936l-0.192-0.448-0.864 0.192c-1.184 0.256-2.4 0.512-3.52 1.152-0.768 0.416-1.504 0.896-2.208 1.344-0.48 0.288-0.96 0.576-1.44 0.864-0.032 0.032-0.096 0.032-0.096 0.032s0 0 0 0c-2.624-0.448-5.312-0.448-8.032 0-0.032 0-0.128-0.032-0.224-0.064-0.32-0.192-0.608-0.384-0.896-0.576-0.32-0.224-0.672-0.448-1.024-0.64-1.664-0.992-3.488-1.92-5.664-2.208l-0.416-0.032-0.224 0.48c-0.032 0.096-0.096 0.16-0.096 0.256-0.64 1.664-1.024 3.424-1.12 5.248-0.064 0.64-0.096 1.312 0 1.984 0.032 0.192 0 0.256-0.096 0.352-0.768 0.992-1.344 2.016-1.696 3.136-0.64 1.888-0.736 3.968-0.352 6.56 0.32 2.176 0.832 3.776 1.728 5.152 1.856 2.912 4.704 4.544 8.512 4.864 1.888 0.16 3.808 0.192 5.696 0.192 0.416 0 0.8 0 1.216 0 0.512 0 1.056 0 1.568 0 2.432 0 4.384-0.32 6.144-1.024 3.136-1.216 5.216-3.488 6.176-6.784 0.544-1.824 0.8-3.744 0.736-5.76-0.064-2.24-0.704-4.192-1.888-5.792zM30.144 22.016c-0.864 2.944-2.656 4.928-5.504 6.048-1.6 0.64-3.392 0.928-5.696 0.928-0.512 0-1.056 0-1.568 0-2.24 0-4.576 0-6.816-0.192-3.456-0.288-5.952-1.728-7.648-4.352-0.768-1.216-1.248-2.656-1.536-4.672-0.352-2.464-0.256-4.32 0.288-6.048 0.352-0.992 0.832-1.888 1.536-2.752 0.288-0.384 0.384-0.736 0.32-1.248-0.096-0.544-0.032-1.152 0-1.792 0.096-1.632 0.448-3.232 0.992-4.768 1.792 0.32 3.36 1.152 4.8 1.984 0.32 0.192 0.64 0.416 0.96 0.608 0.32 0.224 0.608 0.416 0.928 0.608s0.704 0.256 1.024 0.192c2.592-0.416 5.152-0.416 7.616 0.032 0.288 0.032 0.64-0.032 0.896-0.192 0.48-0.288 0.992-0.576 1.472-0.896 0.704-0.448 1.44-0.864 2.176-1.312 0.928-0.544 1.984-0.768 3.104-0.992 0.416 0.992 0.672 2.080 0.832 3.2v0.064c0.128 0.992 0.288 1.984 0.192 2.944-0.096 0.928 0.256 1.504 0.672 2.048 1.056 1.44 1.568 3.136 1.632 5.152 0.064 1.888-0.16 3.712-0.672 5.408z"></path></svg>