<svg xmlns="http://www.w3.org/2000/svg" width="32" height="32" viewBox="0 0 32 32"><title>lock</title><path d="M19.2 7.456c0-1.76-1.44-3.2-3.2-3.2s-3.2 1.44-3.2 3.2v0.544c0 0.288 0.256 0.544 0.544 0.544s0.512-0.256 0.512-0.544v-0.544c0-1.152 0.96-2.112 2.144-2.112s2.144 0.96 2.144 2.112v3.744h-8v10.144h11.712v-10.144h-2.656v-3.744zM20.8 20.256h-9.6v-8h9.6v8zM16 13.344c-1.184 0-2.144 0.96-2.144 2.112 0 0.992 0.704 1.824 1.6 2.080v1.12c0 0.288 0.256 0.544 0.544 0.544s0.544-0.256 0.544-0.544v-1.12c0.896-0.256 1.6-1.088 1.6-2.080 0-1.152-0.96-2.112-2.144-2.112zM16 16.544c-0.576 0-1.056-0.48-1.056-1.088s0.48-1.056 1.056-1.056 1.056 0.48 1.056 1.056-0.48 1.088-1.056 1.088zM16 0c-7.936 0-14.4 6.464-14.4 14.4 0 7.52 5.792 13.728 13.184 14.336l-2.368 2.368c-0.192 0.192-0.192 0.544 0 0.736 0.128 0.096 0.256 0.16 0.384 0.16s0.288-0.064 0.384-0.16l3.2-3.2c0.032-0.032 0.096-0.096 0.096-0.16 0.064-0.128 0.064-0.288 0-0.416 0-0.064-0.064-0.128-0.096-0.16l-3.2-3.232c-0.224-0.192-0.544-0.192-0.768 0s-0.192 0.576 0 0.768l2.24 2.24c-6.72-0.704-12-6.4-12-13.28 0-7.36 5.984-13.344 13.344-13.344s13.344 5.984 13.344 13.344c0 3.552-1.376 6.88-3.872 9.376-0.192 0.224-0.192 0.544 0 0.768 0.224 0.192 0.544 0.192 0.768 0 2.688-2.72 4.16-6.336 4.16-10.144 0-7.936-6.464-14.4-14.4-14.4z"></path></svg>