<svg xmlns="http://www.w3.org/2000/svg" width="32" height="32" viewBox="0 0 32 32"><title>php-document</title><path d="M32 8.096c0-0.192-0.064-0.352-0.16-0.48l-7.456-7.424c-0.128-0.128-0.288-0.192-0.448-0.192h-15.68c-0.352 0-0.64 0.288-0.64 0.64v4.864h-6.976c-0.352 0-0.64 0.288-0.64 0.64v8.96c0 0.352 0.288 0.64 0.64 0.64h6.976v15.648c0 0.352 0.288 0.64 0.64 0.64h23.104c0.352 0 0.64-0.288 0.64-0.64zM24.576 2.176l5.248 5.28h-5.248zM1.28 6.784h14.816v7.68h-14.816zM8.896 30.752v-15.008h7.84c0.352 0 0.64-0.288 0.64-0.64v-8.96c0-0.352-0.288-0.64-0.64-0.64h-7.84v-4.224h14.4v6.816c0 0.352 0.288 0.64 0.64 0.64h6.784v22.016zM3.84 8.032c-0.544 0-0.96 0.032-1.28 0.096v5.12h0.672v-2.080c0.128 0.032 0.32 0.032 0.512 0.032 0.672 0 1.248-0.192 1.6-0.544 0.256-0.288 0.384-0.64 0.384-1.12 0-0.448-0.16-0.832-0.448-1.088s-0.8-0.416-1.44-0.416zM3.776 10.688c-0.224 0-0.416-0.032-0.544-0.064v-2.016c0.096-0.032 0.32-0.064 0.608-0.064 0.736 0 1.216 0.352 1.216 1.024 0 0.704-0.48 1.12-1.28 1.12zM9.824 10.24h-2.528v-2.176h-0.672v5.184h0.672v-2.432h2.528v2.432h0.672v-5.184h-0.672zM12.928 8.032c-0.544 0-0.96 0.032-1.28 0.096v5.12h0.672v-2.080c0.16 0.032 0.32 0.032 0.544 0.032 0.64 0 1.216-0.192 1.568-0.544 0.256-0.288 0.416-0.64 0.416-1.12 0-0.448-0.192-0.832-0.48-1.088s-0.768-0.416-1.44-0.416zM12.864 10.688c-0.224 0-0.416-0.032-0.544-0.064v-2.016c0.096-0.032 0.32-0.064 0.64-0.064 0.736 0 1.216 0.352 1.216 1.024 0 0.704-0.512 1.12-1.312 1.12zM22.848 25.792c-0.416 0-0.704 0.288-0.704 0.736 0 0.384 0.288 0.704 0.672 0.704 0.448 0 0.704-0.32 0.704-0.704 0-0.448-0.288-0.736-0.672-0.736zM23.008 19.264c-0.608 0-1.28 0.16-1.632 0.448l0.256 0.736c0.288-0.224 0.736-0.384 1.152-0.384 0.736 0.032 1.12 0.416 1.12 0.992 0 0.512-0.288 0.96-0.832 1.568-0.576 0.704-0.768 1.376-0.704 1.984l0.032 0.32h0.896v-0.32c-0.032-0.576 0.128-1.088 0.64-1.664 0.544-0.672 0.992-1.216 0.992-2.016 0-0.864-0.608-1.664-1.92-1.664zM14.688 24.352l5.344 2.752v-0.8l-4.48-2.24v-0.032l4.48-2.24v-0.8l-5.344 2.752zM14.688 24.352"></path></svg>