<svg xmlns="http://www.w3.org/2000/svg" width="32" height="32" viewBox="0 0 32 32"><title>-loupe</title><path d="M19.392 11.872c-0.352 0-0.64 0.288-0.64 0.64s0.288 0.608 0.64 0.608c0.32 0 0.608-0.288 0.608-0.608s-0.288-0.64-0.608-0.64zM31.264 27.744l-8.352-8.352c1.376-2.048 2.080-4.416 2.080-6.88 0-6.912-5.6-12.512-12.48-12.512s-12.512 5.6-12.512 12.512 5.6 12.48 12.512 12.48c2.464 0 4.832-0.704 6.88-2.080l2.304 2.304c0 0 0 0 0 0l6.048 6.048c0.448 0.48 1.088 0.736 1.76 0.736s1.28-0.256 1.76-0.736c0.48-0.48 0.736-1.088 0.736-1.76s-0.256-1.312-0.736-1.76zM19.104 21.6c0 0 0 0 0 0-1.92 1.408-4.224 2.144-6.592 2.144-6.208 0-11.264-5.056-11.264-11.232s5.056-11.264 11.264-11.264 11.232 5.056 11.232 11.264c0 2.368-0.736 4.64-2.144 6.592-0.704 0.96-1.536 1.792-2.496 2.496zM20.416 22.176c0.64-0.544 1.216-1.12 1.76-1.76l1.76 1.76c-0.512 0.64-1.12 1.216-1.76 1.76l-1.76-1.76zM30.4 30.4c-0.256 0.224-0.576 0.352-0.896 0.352s-0.64-0.128-0.896-0.352l-5.536-5.568c0.64-0.544 1.216-1.12 1.76-1.76l5.568 5.536c0.224 0.256 0.352 0.544 0.352 0.896 0 0.32-0.128 0.64-0.352 0.896zM12.512 2.496c-5.536 0-10.016 4.48-10.016 10.016s4.48 9.984 10.016 9.984 9.984-4.48 9.984-9.984-4.48-10.016-9.984-10.016zM12.512 21.248c-4.832 0-8.768-3.936-8.768-8.736s3.936-8.768 8.768-8.768 8.736 3.936 8.736 8.768-3.936 8.736-8.736 8.736zM19.52 9.824c-0.544-1.408-1.504-2.592-2.72-3.456-1.28-0.896-2.752-1.376-4.288-1.376-0.352 0-0.64 0.288-0.64 0.64s0.288 0.608 0.64 0.608c2.56 0 4.896 1.632 5.824 4.032 0.096 0.256 0.32 0.384 0.576 0.384 0.096 0 0.16 0 0.224-0.032 0.32-0.128 0.48-0.48 0.384-0.8z"></path></svg>