<svg xmlns="http://www.w3.org/2000/svg" width="32" height="32" viewBox="0 0 32 32"><title>translator</title><path d="M14.016 7.328v0c-0.352 0-0.64 0.288-0.64 0.64v3.36h-0.704c0 0 0-0.032 0-0.032 0-0.032 0-0.032 0-0.032-0.224-2.272-2.432-4.128-4.704-3.936-0.352 0.032-0.64 0.352-0.608 0.704s0.352 0.64 0.704 0.608c1.568-0.128 3.104 1.152 3.296 2.688h-6.688c-0.192 0-0.384 0.096-0.48 0.224-0.128 0.128-0.192 0.32-0.192 0.512 0.128 1.12 0.704 2.176 1.632 2.912 0.8 0.64 1.76 0.992 2.688 0.992 0.16 0 0.288 0 0.416 0 1.824-0.192 3.36-1.6 3.808-3.328h0.832v2.656c0 0.384 0.288 0.672 0.64 0.672s0.672-0.288 0.672-0.672v-7.296c0-0.384-0.32-0.672-0.672-0.672zM8.608 14.656c-0.736 0.064-1.504-0.192-2.144-0.704-0.448-0.352-0.8-0.8-0.96-1.312h5.664c-0.416 1.056-1.408 1.888-2.56 2.016zM26.592 21.568l-3.296-6.528c-0.096-0.192-0.32-0.352-0.576-0.352s-0.48 0.16-0.576 0.352l-3.36 6.688c-0.16 0.32-0.032 0.704 0.288 0.864 0.096 0.064 0.192 0.096 0.288 0.096 0.256 0 0.48-0.128 0.608-0.384l1.152-2.272h3.232l1.088 2.144c0.16 0.32 0.544 0.448 0.864 0.288 0.352-0.16 0.48-0.576 0.288-0.896v0zM21.76 18.688l0.96-1.888 0.96 1.888h-1.92zM31.904 17.888c-0.32-2.080-1.344-3.968-2.848-5.376-2.848-2.656-7.008-3.264-10.432-1.568-0.512-4.64-4.48-8.288-9.248-8.288-2.496 0-4.864 0.96-6.624 2.72s-2.752 4.096-2.752 6.624c0 2.496 0.992 4.832 2.752 6.592s4.128 2.72 6.624 2.72c1.44 0 2.816-0.32 4.032-0.928 0.416 3.808 3.168 7.040 6.944 8.032v0c0.768 0.192 1.504 0.288 2.272 0.288 3.36 0 6.528-1.824 8.224-4.864 0.992-1.792 1.344-3.936 1.056-5.952zM9.376 20c-4.448 0-8.064-3.584-8.064-8 0-4.448 3.616-8.032 8.064-8.032 4.416 0 8 3.584 8 8.032s-3.584 8-8 8zM29.696 23.2c-1.76 3.2-5.472 4.832-9.024 3.936-3.424-0.896-5.856-3.968-5.984-7.488 2.304-1.6 3.84-4.256 3.968-7.232 3.072-1.792 6.912-1.376 9.504 1.056 2.688 2.496 3.328 6.496 1.536 9.728zM12.672 27.936v0c0-0.032-0.032-0.064-0.032-0.096 0 0 0 0 0 0 0-0.032 0-0.032-0.032-0.064 0 0 0 0 0-0.032 0 0-0.032-0.032-0.032-0.032s0 0 0-0.032c-0.032 0-0.032-0.032-0.032-0.032-0.032-0.032-0.032-0.064-0.064-0.064 0-0.032 0-0.032 0-0.032-0.032 0-0.032-0.032-0.064-0.032 0 0 0 0-0.032 0 0-0.032-0.032-0.032-0.032-0.032 0-0.032 0-0.032-0.032-0.032 0 0-0.032-0.032-0.064-0.032l-3.328-1.344c-0.352-0.128-0.736 0.032-0.864 0.352s0.032 0.704 0.352 0.864l2.24 0.896c-1.216 0.672-2.72 0.736-4 0.096v0c-1.632-0.736-2.656-2.432-2.624-4.256 0-0.352-0.288-0.672-0.64-0.672s-0.672 0.288-0.672 0.64c-0.064 2.368 1.28 4.512 3.36 5.504 0.8 0.352 1.632 0.544 2.464 0.544 0.736 0 1.44-0.128 2.112-0.416l-0.576 1.472c-0.16 0.32 0 0.736 0.352 0.864 0.064 0.032 0.16 0.032 0.256 0.032 0.256 0 0.48-0.16 0.608-0.416l1.344-3.296c0 0 0-0.032 0-0.032s0 0 0 0c0-0.032 0-0.064 0-0.064s0 0 0.032-0.032c0 0 0-0.032 0-0.064s0-0.064 0-0.064 0-0.032 0-0.032c0-0.032 0-0.032 0-0.064 0 0 0 0 0 0zM19.36 4.096v0c0.032 0.032 0.032 0.032 0.032 0.064 0 0 0 0 0 0 0 0.032 0.032 0.064 0.032 0.064s0 0.032 0 0.032c0.032 0 0.032 0.032 0.032 0.032 0 0.032 0 0.032 0.032 0.032 0 0.032 0 0.032 0.032 0.064 0 0 0.032 0.032 0.032 0.064 0.032 0 0.032 0 0.032 0s0.032 0.032 0.032 0.032c0 0 0.032 0 0.032 0.032 0 0 0.032 0 0.032 0.032 0.032 0 0.032 0 0.032 0 0.032 0.032 0.032 0.032 0.064 0.032l3.36 1.344c0.32 0.16 0.704 0 0.832-0.352 0.16-0.32 0-0.704-0.352-0.864l-2.24-0.896c1.248-0.672 2.72-0.704 4-0.096h0.032c1.632 0.768 2.656 2.432 2.624 4.256-0.032 0.352 0.256 0.672 0.64 0.672 0 0 0 0 0 0 0.352 0 0.64-0.288 0.672-0.64 0.032-2.368-1.28-4.512-3.392-5.472v0c-1.472-0.704-3.104-0.736-4.576-0.16l0.608-1.472c0.128-0.32-0.032-0.704-0.352-0.864-0.352-0.128-0.736 0.032-0.864 0.384l-1.344 3.296c0 0 0 0.032 0 0.032s-0.032 0-0.032 0.032c0 0 0 0.032 0 0.032 0 0.032 0 0.032 0 0.032 0 0.032 0 0.064-0.032 0.064 0 0.032 0 0.064 0 0.096 0 0 0 0 0 0 0 0.032 0.032 0.064 0.032 0.064-0.032 0-0.032 0-0.032 0.032z"></path></svg>